<svg fill="none" height="20" viewBox="0 0 20 20" width="20" xmlns="http://www.w3.org/2000/svg"><path d="m6.5 2h6.6854c.4202 0 .8211.17624 1.1052.48582l4.3146 4.70179c.2539.27672.3948.63862.3948 1.01418v10.29821c0 .8284-.6716 1.5-1.5 1.5h-11c-.82843 0-1.5-.6716-1.5-1.5v-15c0-.82843.67157-1.5 1.5-1.5z" fill="#4287f5" opacity=".8"/><g fill="#000"><path d="m6.5 12.5c-.27614 0-.5-.2239-.5-.5s.22386-.5.5-.5h7c.2761 0 .5.2239.5.5s-.2239.5-.5.5z"/><path d="m6.5 15c-.27614 0-.5-.2239-.5-.5s.22386-.5.5-.5h7c.2761 0 .5.2239.5.5s-.2239.5-.5.5z"/><path clip-rule="evenodd" d="m11.1854 1h-6.6854c-.82843 0-1.5.67157-1.5 1.5v15c0 .8284.67157 1.5 1.5 1.5h11c.8284 0 1.5-.6716 1.5-1.5v-10.29821c0-.37556-.1409-.73746-.3948-1.01418l-4.3146-4.70179c-.2841-.30958-.685-.48582-1.1052-.48582zm-7.1854 1.5c0-.27614.22386-.5.5-.5h6.6854c.1401 0 .2737.05875.3684.16194l4.3146 4.70179c.0846.09224.1316.21287.1316.33806v10.29821c0 .2761-.2239.5-.5.5h-11c-.27614 0-.5-.2239-.5-.5z" fill-rule="evenodd"/></g><path d="m11.5 2.09998v4.7h4.7" stroke="#000" stroke-linecap="round" stroke-linejoin="round"/><path d="m8.13421 6.13317c.58906 0 1.06659-.47752 1.06659-1.06658s-.47753-1.06659-1.06659-1.06659-1.06658.47753-1.06658 1.06659.47752 1.06658 1.06658 1.06658z" fill="#000"/><path clip-rule="evenodd" d="m10.2663 8.4443c0-1.13449-.9549-1.95541-2.13313-1.95541-1.17822 0-2.13317.82092-2.13317 1.95541l.00071.5333c0 .09429.03746.18472.10413.25139.06668.06668.15711.10413.2514.10413h3.55458c.09428 0 .18468-.03745.25138-.10413.0667-.06667.1041-.1571.1041-.25139z" fill="#000" fill-rule="evenodd"/></svg>